<svg width="28" height="28" viewBox="0 0 28 28" fill="none" xmlns="http://www.w3.org/2000/svg">
<path d="M24.1689 3.83112C23.9315 3.59373 23.5456 3.59373 23.3082 3.83112L14.7864 12.3528C14.5491 12.5902 14.5491 12.9762 14.7864 13.2135C14.9058 13.3316 15.0616 13.3913 15.2174 13.3913C15.3732 13.3913 15.529 13.3317 15.6472 13.2135L24.1689 4.69183C24.4063 4.45444 24.4063 4.06851 24.1689 3.83112Z" fill="#9EA0A5"/>
<path d="M23.7405 3.6521C23.4045 3.6521 23.1318 3.92481 23.1318 4.26081V11.5652C23.1318 11.9012 23.4045 12.1739 23.7405 12.1739C24.0765 12.1739 24.3493 11.9012 24.3493 11.5652V4.26081C24.3493 3.92481 24.0765 3.6521 23.7405 3.6521Z" fill="#9EA0A5"/>
<path d="M23.7412 3.6521H16.4368C16.1008 3.6521 15.8281 3.92481 15.8281 4.26081C15.8281 4.59681 16.1008 4.86947 16.4368 4.86947H23.7412C24.0772 4.86947 24.3499 4.59675 24.3499 4.26076C24.3499 3.92476 24.0772 3.6521 23.7412 3.6521Z" fill="#9EA0A5"/>
<path d="M13.2138 14.7874C12.9764 14.55 12.5905 14.55 12.3531 14.7874L3.83136 23.3091C3.59397 23.5465 3.59397 23.9325 3.83136 24.1698C3.95069 24.2879 4.10648 24.3476 4.26232 24.3476C4.41817 24.3476 4.57395 24.288 4.69208 24.1698L13.2138 15.6481C13.4512 15.4107 13.4512 15.0248 13.2138 14.7874Z" fill="#9EA0A5"/>
<path d="M4.26203 15.8259C3.92603 15.8259 3.65332 16.0986 3.65332 16.4346V23.739C3.65332 24.075 3.92603 24.3477 4.26203 24.3477C4.59803 24.3477 4.87069 24.075 4.87069 23.739V16.4346C4.87069 16.0986 4.59803 15.8259 4.26203 15.8259Z" fill="#9EA0A5"/>
<path d="M11.5664 23.1304H4.26203C3.92603 23.1304 3.65332 23.4031 3.65332 23.7391C3.65332 24.0751 3.92603 24.3478 4.26203 24.3478H11.5664C11.9024 24.3478 12.1751 24.0751 12.1751 23.7391C12.175 23.4031 11.9024 23.1304 11.5664 23.1304Z" fill="#9EA0A5"/>
<path d="M26.1739 0H1.82609C0.819285 0 0 0.819285 0 1.82609V26.1739C0 27.1807 0.819285 28 1.82609 28H26.1739C27.1807 28 28 27.1807 28 26.1739V1.82609C28 0.819285 27.1807 0 26.1739 0ZM26.7826 26.1739C26.7826 26.5087 26.5087 26.7826 26.1739 26.7826H1.82609C1.49128 26.7826 1.21737 26.5087 1.21737 26.1739V1.82609C1.21737 1.49128 1.49128 1.21737 1.82609 1.21737H26.1739C26.5087 1.21737 26.7826 1.49128 26.7826 1.82609V26.1739H26.7826Z" fill="#9EA0A5"/>
</svg>
