<svg width="178" height="202" viewBox="0 0 178 202" fill="none" xmlns="http://www.w3.org/2000/svg">
<path d="M26.3193 188.006H29.2861C30.6624 188.006 31.6559 188.206 32.2666 188.607C32.8818 189.008 33.1895 189.642 33.1895 190.508C33.1895 191.091 33.0391 191.576 32.7383 191.964C32.4375 192.351 32.0046 192.595 31.4395 192.695V192.764C32.1413 192.896 32.6562 193.158 32.9844 193.55C33.3171 193.937 33.4834 194.464 33.4834 195.129C33.4834 196.027 33.1689 196.731 32.54 197.241C31.9157 197.747 31.0452 198 29.9287 198H26.3193V188.006ZM27.9531 192.135H29.5254C30.209 192.135 30.708 192.028 31.0225 191.813C31.3369 191.595 31.4941 191.226 31.4941 190.706C31.4941 190.237 31.3232 189.897 30.9814 189.688C30.6442 189.478 30.1064 189.373 29.3682 189.373H27.9531V192.135ZM27.9531 193.461V196.626H29.6895C30.373 196.626 30.888 196.496 31.2344 196.236C31.5853 195.972 31.7607 195.557 31.7607 194.992C31.7607 194.473 31.583 194.088 31.2275 193.837C30.8721 193.586 30.332 193.461 29.6074 193.461H27.9531ZM38.6924 198.137C37.5166 198.137 36.596 197.795 35.9307 197.111C35.2699 196.423 34.9395 195.478 34.9395 194.274C34.9395 193.039 35.2471 192.069 35.8623 191.362C36.4775 190.656 37.3229 190.303 38.3984 190.303C39.3965 190.303 40.1849 190.606 40.7637 191.212C41.3424 191.818 41.6318 192.652 41.6318 193.714V194.582H36.5938C36.6165 195.316 36.8148 195.881 37.1885 196.277C37.5622 196.669 38.0885 196.865 38.7676 196.865C39.2142 196.865 39.6289 196.824 40.0117 196.742C40.3991 196.656 40.8138 196.514 41.2559 196.318V197.624C40.8639 197.811 40.4674 197.943 40.0664 198.021C39.6654 198.098 39.2074 198.137 38.6924 198.137ZM38.3984 191.52C37.888 191.52 37.4779 191.681 37.168 192.005C36.8626 192.328 36.6803 192.8 36.6211 193.42H40.0527C40.0436 192.796 39.8932 192.324 39.6016 192.005C39.3099 191.681 38.9089 191.52 38.3984 191.52ZM45.0635 198H43.457V187.363H45.0635V198ZM52.6992 198L52.4736 197.009H52.3916C52.1683 197.36 51.8493 197.635 51.4346 197.836C51.0244 198.036 50.555 198.137 50.0264 198.137C49.1104 198.137 48.4268 197.909 47.9756 197.453C47.5244 196.997 47.2988 196.307 47.2988 195.382V190.439H48.9189V195.102C48.9189 195.68 49.0374 196.116 49.2744 196.407C49.5114 196.694 49.8828 196.838 50.3887 196.838C51.0632 196.838 51.5576 196.637 51.8721 196.236C52.1911 195.831 52.3506 195.154 52.3506 194.206V190.439H53.9639V198H52.6992ZM62.625 198H61.0117V193.338C61.0117 192.759 60.9023 192.328 60.6836 192.046C60.4648 191.759 60.123 191.615 59.6582 191.615C59.0384 191.615 58.5827 191.818 58.291 192.224C58.0039 192.625 57.8604 193.295 57.8604 194.233V198H56.2539V190.439H57.5117L57.7373 191.431H57.8193C58.029 191.071 58.332 190.793 58.7285 190.597C59.1296 190.401 59.5693 190.303 60.0479 190.303C61.21 190.303 61.9801 190.699 62.3584 191.492H62.4678C62.6911 191.118 63.0055 190.827 63.4111 190.617C63.8167 190.408 64.2816 190.303 64.8057 190.303C65.708 190.303 66.3643 190.531 66.7744 190.986C67.1891 191.442 67.3965 192.137 67.3965 193.071V198H65.79V193.338C65.79 192.759 65.6784 192.328 65.4551 192.046C65.2363 191.759 64.8945 191.615 64.4297 191.615C63.8053 191.615 63.3473 191.811 63.0557 192.203C62.7686 192.59 62.625 193.188 62.625 193.994V198ZM78.0059 198L77.6846 196.947H77.6299C77.2653 197.408 76.8984 197.722 76.5293 197.891C76.1602 198.055 75.6862 198.137 75.1074 198.137C74.3646 198.137 73.7835 197.936 73.3643 197.535C72.9495 197.134 72.7422 196.567 72.7422 195.833C72.7422 195.054 73.0316 194.466 73.6104 194.069C74.1891 193.673 75.071 193.456 76.2559 193.42L77.5615 193.379V192.976C77.5615 192.493 77.4476 192.132 77.2197 191.896C76.9964 191.654 76.6478 191.533 76.1738 191.533C75.7865 191.533 75.415 191.59 75.0596 191.704C74.7041 191.818 74.3623 191.952 74.0342 192.107L73.5146 190.959C73.9248 190.745 74.3737 190.583 74.8613 190.474C75.349 190.36 75.8092 190.303 76.2422 190.303C77.2038 190.303 77.9284 190.512 78.416 190.932C78.9082 191.351 79.1543 192.009 79.1543 192.907V198H78.0059ZM75.6133 196.906C76.1966 196.906 76.6637 196.744 77.0146 196.421C77.3701 196.093 77.5479 195.635 77.5479 195.047V194.391L76.5771 194.432C75.8206 194.459 75.2692 194.587 74.9229 194.814C74.5811 195.038 74.4102 195.382 74.4102 195.847C74.4102 196.184 74.5104 196.446 74.7109 196.633C74.9115 196.815 75.2122 196.906 75.6133 196.906ZM83.9463 198.137C83.0029 198.137 82.2669 197.795 81.7383 197.111C81.2096 196.428 80.9453 195.468 80.9453 194.233C80.9453 192.994 81.2119 192.03 81.7451 191.342C82.2829 190.649 83.0257 190.303 83.9736 190.303C84.9671 190.303 85.7236 190.67 86.2432 191.403H86.3252C86.2477 190.861 86.209 190.433 86.209 190.118V187.363H87.8223V198H86.5645L86.2842 197.009H86.209C85.694 197.761 84.9398 198.137 83.9463 198.137ZM84.377 196.838C85.0378 196.838 85.5186 196.653 85.8193 196.284C86.1201 195.91 86.2751 195.307 86.2842 194.473V194.247C86.2842 193.295 86.1292 192.618 85.8193 192.217C85.5094 191.816 85.0241 191.615 84.3633 191.615C83.7982 191.615 83.363 191.845 83.0576 192.306C82.7523 192.761 82.5996 193.413 82.5996 194.261C82.5996 195.099 82.7477 195.74 83.0439 196.182C83.3402 196.619 83.7845 196.838 84.377 196.838ZM94.8496 198L94.5283 196.947H94.4736C94.109 197.408 93.7422 197.722 93.373 197.891C93.0039 198.055 92.5299 198.137 91.9512 198.137C91.2083 198.137 90.6273 197.936 90.208 197.535C89.7933 197.134 89.5859 196.567 89.5859 195.833C89.5859 195.054 89.8753 194.466 90.4541 194.069C91.0329 193.673 91.9147 193.456 93.0996 193.42L94.4053 193.379V192.976C94.4053 192.493 94.2913 192.132 94.0635 191.896C93.8402 191.654 93.4915 191.533 93.0176 191.533C92.6302 191.533 92.2588 191.59 91.9033 191.704C91.5479 191.818 91.2061 191.952 90.8779 192.107L90.3584 190.959C90.7686 190.745 91.2174 190.583 91.7051 190.474C92.1927 190.36 92.653 190.303 93.0859 190.303C94.0475 190.303 94.7721 190.512 95.2598 190.932C95.752 191.351 95.998 192.009 95.998 192.907V198H94.8496ZM92.457 196.906C93.0404 196.906 93.5075 196.744 93.8584 196.421C94.2139 196.093 94.3916 195.635 94.3916 195.047V194.391L93.4209 194.432C92.6644 194.459 92.113 194.587 91.7666 194.814C91.4248 195.038 91.2539 195.382 91.2539 195.847C91.2539 196.184 91.3542 196.446 91.5547 196.633C91.7552 196.815 92.056 196.906 92.457 196.906ZM105.712 198.137C104.755 198.137 104.012 197.793 103.483 197.104H103.388C103.451 197.743 103.483 198.13 103.483 198.267V201.363H101.877V190.439H103.176C103.212 190.581 103.287 190.918 103.401 191.451H103.483C103.985 190.686 104.737 190.303 105.739 190.303C106.683 190.303 107.416 190.645 107.94 191.328C108.469 192.012 108.733 192.971 108.733 194.206C108.733 195.441 108.465 196.405 107.927 197.098C107.394 197.79 106.655 198.137 105.712 198.137ZM105.322 191.615C104.684 191.615 104.217 191.802 103.921 192.176C103.629 192.549 103.483 193.146 103.483 193.967V194.206C103.483 195.127 103.629 195.794 103.921 196.209C104.213 196.619 104.689 196.824 105.35 196.824C105.906 196.824 106.334 196.596 106.635 196.141C106.936 195.685 107.086 195.035 107.086 194.192C107.086 193.345 106.936 192.704 106.635 192.271C106.339 191.834 105.901 191.615 105.322 191.615ZM113.901 198.137C112.726 198.137 111.805 197.795 111.14 197.111C110.479 196.423 110.148 195.478 110.148 194.274C110.148 193.039 110.456 192.069 111.071 191.362C111.687 190.656 112.532 190.303 113.607 190.303C114.605 190.303 115.394 190.606 115.973 191.212C116.551 191.818 116.841 192.652 116.841 193.714V194.582H111.803C111.826 195.316 112.024 195.881 112.397 196.277C112.771 196.669 113.298 196.865 113.977 196.865C114.423 196.865 114.838 196.824 115.221 196.742C115.608 196.656 116.023 196.514 116.465 196.318V197.624C116.073 197.811 115.676 197.943 115.275 198.021C114.874 198.098 114.416 198.137 113.901 198.137ZM113.607 191.52C113.097 191.52 112.687 191.681 112.377 192.005C112.072 192.328 111.889 192.8 111.83 193.42H115.262C115.253 192.796 115.102 192.324 114.811 192.005C114.519 191.681 114.118 191.52 113.607 191.52ZM120.218 194.008L121.127 192.873L123.41 190.439H125.263L122.221 193.687L125.454 198H123.567L121.141 194.685L120.259 195.409V198H118.666V187.363H120.259V192.552L120.177 194.008H120.218ZM129.979 198.137C128.804 198.137 127.883 197.795 127.218 197.111C126.557 196.423 126.227 195.478 126.227 194.274C126.227 193.039 126.534 192.069 127.149 191.362C127.765 190.656 128.61 190.303 129.686 190.303C130.684 190.303 131.472 190.606 132.051 191.212C132.63 191.818 132.919 192.652 132.919 193.714V194.582H127.881C127.904 195.316 128.102 195.881 128.476 196.277C128.849 196.669 129.376 196.865 130.055 196.865C130.501 196.865 130.916 196.824 131.299 196.742C131.686 196.656 132.101 196.514 132.543 196.318V197.624C132.151 197.811 131.755 197.943 131.354 198.021C130.952 198.098 130.494 198.137 129.979 198.137ZM129.686 191.52C129.175 191.52 128.765 191.681 128.455 192.005C128.15 192.328 127.967 192.8 127.908 193.42H131.34C131.331 192.796 131.18 192.324 130.889 192.005C130.597 191.681 130.196 191.52 129.686 191.52ZM138.579 190.303C138.903 190.303 139.169 190.326 139.379 190.371L139.222 191.868C138.994 191.813 138.757 191.786 138.511 191.786C137.868 191.786 137.346 191.996 136.945 192.415C136.549 192.834 136.351 193.379 136.351 194.049V198H134.744V190.439H136.002L136.214 191.772H136.296C136.547 191.321 136.872 190.964 137.273 190.699C137.679 190.435 138.114 190.303 138.579 190.303ZM140.015 201.363C139.532 201.363 139.131 201.306 138.812 201.192V199.921C139.121 200.003 139.438 200.044 139.762 200.044C140.445 200.044 140.787 199.657 140.787 198.882V190.439H142.394V198.991C142.394 199.771 142.188 200.361 141.778 200.762C141.373 201.163 140.785 201.363 140.015 201.363ZM140.691 188.437C140.691 188.149 140.769 187.928 140.924 187.773C141.083 187.618 141.309 187.541 141.601 187.541C141.883 187.541 142.102 187.618 142.257 187.773C142.416 187.928 142.496 188.149 142.496 188.437C142.496 188.71 142.416 188.926 142.257 189.086C142.102 189.241 141.883 189.318 141.601 189.318C141.309 189.318 141.083 189.241 140.924 189.086C140.769 188.926 140.691 188.71 140.691 188.437ZM149.428 198L149.106 196.947H149.052C148.687 197.408 148.32 197.722 147.951 197.891C147.582 198.055 147.108 198.137 146.529 198.137C145.786 198.137 145.205 197.936 144.786 197.535C144.371 197.134 144.164 196.567 144.164 195.833C144.164 195.054 144.453 194.466 145.032 194.069C145.611 193.673 146.493 193.456 147.678 193.42L148.983 193.379V192.976C148.983 192.493 148.869 192.132 148.642 191.896C148.418 191.654 148.07 191.533 147.596 191.533C147.208 191.533 146.837 191.59 146.481 191.704C146.126 191.818 145.784 191.952 145.456 192.107L144.937 190.959C145.347 190.745 145.796 190.583 146.283 190.474C146.771 190.36 147.231 190.303 147.664 190.303C148.626 190.303 149.35 190.512 149.838 190.932C150.33 191.351 150.576 192.009 150.576 192.907V198H149.428ZM147.035 196.906C147.618 196.906 148.086 196.744 148.437 196.421C148.792 196.093 148.97 195.635 148.97 195.047V194.391L147.999 194.432C147.243 194.459 146.691 194.587 146.345 194.814C146.003 195.038 145.832 195.382 145.832 195.847C145.832 196.184 145.932 196.446 146.133 196.633C146.333 196.815 146.634 196.906 147.035 196.906Z" fill="#1F2A36"/>
<path d="M7.83479 161.946C8.00875 162.089 8.18278 162.226 8.36087 162.36H52.2982C52.6255 162.226 52.9513 162.088 53.2758 161.946C57.9142 159.928 62.2316 157.24 66.09 153.968C68.652 151.798 71.009 149.557 72.7177 147.456C75.1015 144.526 77.2969 141.332 78.3181 137.693C79.337 134.054 79.0326 129.883 76.7564 126.865C76.0516 125.937 75.1851 125.143 74.1985 124.523C74.0349 124.419 73.8692 124.32 73.6994 124.226C70.8676 122.702 67.5642 122.305 64.4517 123.114C60.0505 124.251 56.3929 127.426 53.7832 131.15C51.1736 134.872 49.4793 139.147 47.8101 143.374C46.1159 135.829 40.9856 129.071 34.0556 125.635C27.1275 122.199 18.5198 122.24 11.7389 125.962C9.60535 127.14 7.67806 128.658 6.03286 130.457C5.86934 130.633 5.70975 130.813 5.55239 130.995C2.24483 134.825 0.175704 139.729 0.00590462 144.787C-0.0704368 148.053 0.594349 151.293 1.95032 154.265C3.30628 157.237 5.31816 159.863 7.83479 161.946Z" fill="#F2F2F2"/>
<path d="M50.543 162.361H51.1643C51.1725 162.222 51.1829 162.085 51.1954 161.946C51.4125 159.237 51.8672 156.552 52.554 153.923C54.1299 147.919 56.8216 142.266 60.4886 137.258C64.1451 132.234 68.7548 127.979 74.0546 124.736C74.0934 124.714 74.1266 124.683 74.1517 124.646C74.1768 124.609 74.1932 124.567 74.1996 124.523C74.2097 124.465 74.2032 124.405 74.1808 124.351C74.1584 124.297 74.1211 124.25 74.0731 124.216C74.0251 124.182 73.9685 124.163 73.9099 124.16C73.8512 124.157 73.7929 124.171 73.7418 124.2C73.7276 124.208 73.7138 124.217 73.7005 124.227C70.6978 126.057 67.9105 128.219 65.391 130.672C60.8843 135.068 57.2504 140.278 54.6811 146.025C52.4144 151.059 51.026 156.444 50.576 161.946C50.5636 162.085 50.5533 162.224 50.543 162.361Z" fill="white"/>
<path d="M5.55266 130.995C5.55716 130.997 5.56208 130.999 5.56713 130.999C6.02069 131.082 6.47639 131.169 6.92793 131.262C10.6343 132.023 14.2625 133.125 17.7663 134.553C21.2608 135.979 24.6223 137.712 27.8113 139.731C31.0044 141.749 34.0155 144.042 36.8104 146.583C39.6054 149.12 42.1692 151.901 44.4716 154.892C46.1925 157.133 47.7571 159.49 49.1545 161.946C49.2331 162.083 49.3098 162.222 49.3865 162.361H50.0968C50.0223 162.222 49.9456 162.083 49.867 161.946C48.1764 158.937 46.238 156.074 44.0719 153.386C41.6764 150.412 39.0211 147.657 36.1373 145.153C33.2719 142.664 30.1965 140.427 26.9456 138.468C23.6811 136.5 20.249 134.826 16.6892 133.464C13.2348 132.143 9.66832 131.137 6.03313 130.457C5.9317 130.438 5.83229 130.419 5.73075 130.401C5.34352 130.33 5.17777 130.914 5.55266 130.995Z" fill="white"/>
<path d="M17.9055 152.616C22.2322 152.02 26.6262 152.12 30.9217 152.909C35.2046 153.692 39.3394 155.138 43.1772 157.194C45.334 158.353 47.381 159.705 49.2931 161.235C49.6055 161.484 49.1633 161.921 48.8537 161.674C45.4986 159.005 41.7376 156.891 37.7136 155.412C33.7215 153.935 29.5254 153.084 25.2734 152.888C22.8676 152.778 20.4566 152.887 18.0707 153.215C17.9913 153.234 17.9077 153.222 17.8368 153.182C17.7658 153.141 17.7128 153.076 17.6885 152.998C17.6671 152.918 17.6779 152.834 17.7185 152.762C17.7591 152.691 17.8263 152.638 17.9055 152.616H17.9055Z" fill="white"/>
<path d="M174.153 0H87.8355C86.8171 0.00144895 85.8409 0.408974 85.1208 1.13323C84.4008 1.85749 83.9956 2.83938 83.9941 3.86364V38.6364C83.9956 39.6606 84.4008 40.6425 85.1208 41.3668C85.8409 42.091 86.8171 42.4986 87.8355 42.5H93.9364V55H94.1624C96.6187 54.9974 98.9736 54.0148 100.71 52.2679C102.447 50.521 103.424 48.1524 103.427 45.6818V42.5H174.153C175.171 42.4986 176.147 42.091 176.867 41.3668C177.588 40.6425 177.993 39.6606 177.994 38.6364V3.86364C177.993 2.83938 177.588 1.85749 176.867 1.13324C176.147 0.408977 175.171 0.00144955 174.153 0ZM177.542 38.6364C177.541 39.5402 177.184 40.4067 176.548 41.0457C175.913 41.6848 175.051 42.0444 174.153 42.0455H102.975V45.6818C102.972 47.9924 102.073 50.2106 100.47 51.8653C98.8664 53.52 96.6847 54.4807 94.3884 54.5432V42.0455H87.8355C86.9369 42.0444 86.0754 41.6848 85.44 41.0457C84.8046 40.4067 84.4472 39.5402 84.4461 38.6364V3.86364C84.4472 2.95983 84.8046 2.09335 85.44 1.45426C86.0754 0.815169 86.9369 0.455645 87.8355 0.454545H174.153C175.051 0.455645 175.913 0.815169 176.548 1.45426C177.184 2.09335 177.541 2.95983 177.542 3.86364V38.6364Z" fill="#3F3D56"/>
<path d="M157.162 8H104.826C104.095 8.00037 103.392 8.25068 102.865 8.69846C102.338 9.14623 102.027 9.75673 101.999 10.402C101.995 10.4346 101.994 10.4673 101.994 10.5C101.995 11.1628 102.294 11.7981 102.825 12.2667C103.356 12.7354 104.076 12.9991 104.826 13H157.162C157.913 13 158.634 12.7366 159.165 12.2678C159.696 11.7989 159.994 11.163 159.994 10.5C159.994 9.83696 159.696 9.20107 159.165 8.73223C158.634 8.26339 157.913 8 157.162 8Z" fill="#5E50A1"/>
<path d="M157.162 18H104.826C104.095 18.0004 103.392 18.2507 102.865 18.6985C102.338 19.1462 102.027 19.7567 101.999 20.402C101.995 20.4346 101.994 20.4673 101.994 20.5C101.995 21.1628 102.294 21.7981 102.825 22.2667C103.356 22.7354 104.076 22.9991 104.826 23H157.162C157.913 23 158.634 22.7366 159.165 22.2678C159.696 21.7989 159.994 21.163 159.994 20.5C159.994 19.837 159.696 19.2011 159.165 18.7322C158.634 18.2634 157.913 18 157.162 18Z" fill="#5E50A1"/>
<path d="M157.162 28H104.826C104.095 28.0004 103.392 28.2507 102.865 28.6985C102.338 29.1462 102.027 29.7567 101.999 30.402C101.995 30.4346 101.994 30.4673 101.994 30.5C101.995 31.1628 102.294 31.7981 102.825 32.2667C103.356 32.7354 104.076 32.9991 104.826 33H157.162C157.913 33 158.634 32.7366 159.165 32.2678C159.696 31.7989 159.994 31.163 159.994 30.5C159.994 29.837 159.696 29.2011 159.165 28.7322C158.634 28.2634 157.913 28 157.162 28Z" fill="#5E50A1"/>
<path d="M71.8556 94.1603C71.7117 94.1604 71.5678 94.1514 71.425 94.1333C70.933 94.073 70.4593 93.9093 70.0349 93.6532C69.6105 93.397 69.2451 93.054 68.9625 92.6468C68.6799 92.2395 68.4866 91.7771 68.3952 91.2899C68.3038 90.8027 68.3163 90.3017 68.432 89.8197C68.4594 89.7078 68.4926 89.5974 68.5313 89.4889L57.8624 75.8304C57.3927 75.2243 57.1309 74.483 57.1159 73.7163C57.1009 72.9497 57.3335 72.1987 57.7791 71.5747L61.5163 66.3843L66.4008 70.1526L64.4385 73.5238L72.2097 87.1454C72.366 87.1598 72.521 87.1851 72.6738 87.221C73.511 87.4222 74.2455 87.9235 74.7379 88.6299C75.2304 89.3363 75.4467 90.1988 75.3458 91.0539C75.245 91.9091 74.8341 92.6976 74.1908 93.2701C73.5476 93.8426 72.7167 94.1594 71.8556 94.1603L71.8556 94.1603Z" fill="#F5C4CB"/>
<path d="M90.3171 158.881L94.2374 158.88L96.1023 143.759L90.3164 143.76L90.3171 158.881Z" fill="#F5C4CB"/>
<path d="M101.797 162.52L89.476 162.521L89.4758 157.761L97.0363 157.76C97.6615 157.76 98.2805 157.883 98.858 158.122C99.4356 158.362 99.9604 158.712 100.402 159.154C100.845 159.596 101.195 160.121 101.434 160.699C101.674 161.276 101.797 161.895 101.797 162.52Z" fill="#2F2E41"/>
<path d="M58.0221 158.881L61.9425 158.88L63.8074 143.759L58.0215 143.76L58.0221 158.881Z" fill="#F5C4CB"/>
<path d="M69.5 162.52L57.1791 162.521L57.1789 157.761L64.7395 157.76C65.3646 157.76 65.9836 157.883 66.5612 158.122C67.1387 158.362 67.6635 158.712 68.1056 159.154C68.5476 159.596 68.8983 160.121 69.1376 160.699C69.3768 161.276 69.5 161.895 69.5 162.52Z" fill="#2F2E41"/>
<path d="M60.4277 67.1206L69.2292 70.4652L71.3781 64.4962C71.6634 63.7036 71.6594 62.8357 71.3667 62.0458C71.074 61.2559 70.5115 60.5948 69.7786 60.1795C69.0372 59.7594 68.17 59.6182 67.3336 59.7815C66.4973 59.9448 65.7468 60.4018 65.2179 61.0699L60.4277 67.1206Z" fill="#5E50A1"/>
<path d="M89.622 146.674C89.2705 146.674 88.9292 146.557 88.6518 146.341C88.3743 146.125 88.1765 145.823 88.0895 145.483C83.7005 128.692 79.244 120.275 74.4653 110.543C74.3459 110.3 74.1521 110.102 73.9122 109.977C73.6723 109.852 73.3988 109.807 73.1314 109.848C72.8641 109.89 72.6169 110.015 72.4258 110.207C72.2347 110.398 72.1096 110.645 72.0688 110.913L66.1454 145.143C66.0863 145.525 65.8904 145.873 65.5942 146.121C65.298 146.369 64.9217 146.501 64.5354 146.492L55.7413 146.278C55.5279 146.274 55.3176 146.226 55.1232 146.138C54.9288 146.05 54.7542 145.924 54.6101 145.766C54.4578 145.615 54.3413 145.432 54.2692 145.23C54.1971 145.028 54.1711 144.813 54.1932 144.6C58.1762 118.333 61.3122 94.5559 67.343 87.3024C67.5102 87.1441 67.7018 87.0138 67.9105 86.9166L67.7276 86.8885C67.6752 86.8804 67.536 86.859 67.5343 86.7191L67.5325 86.5837L67.6701 86.5576C67.8897 86.5499 68.1089 86.5829 68.3165 86.6549L82.0807 88.7732C82.462 88.8319 82.8089 89.0272 83.0568 89.3228C83.3047 89.6184 83.4367 89.994 83.4282 90.3797C84.1765 93.8803 85.3232 99.1641 85.4258 99.4244C92.7695 113.386 95.6191 124.38 98.581 143.153C98.6424 143.551 98.5508 143.958 98.3247 144.291C98.0985 144.625 97.7547 144.86 97.3621 144.95L89.9804 146.634C89.8629 146.661 89.7426 146.674 89.622 146.674Z" fill="#FBB017"/>
<path d="M81.8958 91.0623C81.7723 91.0623 81.6492 91.0478 81.5291 91.0192L67.9778 87.7956C67.7701 87.7471 67.5746 87.6565 67.4032 87.5296C67.2319 87.4026 67.0884 87.2418 66.9815 87.0572C66.8713 86.8663 66.8008 86.655 66.7742 86.4362C66.7476 86.2173 66.7655 85.9953 66.8268 85.7835C68.2881 80.7173 66.372 74.4372 64.0836 68.4053C63.7926 66.6415 64.0777 64.8308 64.8967 63.2417C65.7157 61.6527 67.025 60.3698 68.6305 59.5835L68.6673 59.5657L75.782 59.9248C76.9502 60.2311 78.0338 60.7983 78.9514 61.5836C79.8689 62.3689 80.5966 63.352 81.0796 64.459C83.8218 70.877 84.607 79.1124 83.4797 89.6358C83.4383 90.0271 83.2536 90.3893 82.9612 90.6527C82.6688 90.916 82.2893 91.0619 81.8958 91.0623L81.8958 91.0623Z" fill="#5E50A1"/>
<path d="M83.7207 76.4123C82.9973 76.4138 82.2915 76.1895 81.7018 75.7706L76.4531 72.0296L80.1979 67.1269L83.5784 69.0731L97.1626 61.2365C97.1762 61.0802 97.2007 60.925 97.2358 60.7721C97.395 60.0949 97.7515 59.4801 98.2601 59.0055C98.7687 58.5309 99.4067 58.2177 100.093 58.1056C100.78 57.9936 101.484 58.0876 102.117 58.3759C102.751 58.6641 103.284 59.1337 103.65 59.7251C104.017 60.3166 104.199 61.0033 104.175 61.6986C104.151 62.3939 103.922 63.0664 103.515 63.6311C103.109 64.1959 102.545 64.6275 101.893 64.8714C101.241 65.1152 100.532 65.1604 99.855 65.0012C99.743 64.9744 99.6324 64.9417 99.5237 64.9035L85.8778 75.6688C85.2627 76.152 84.5028 76.4139 83.7207 76.4123Z" fill="#F5C4CB"/>
<path d="M74.7875 73.5564L82.5734 68.2619L78.9144 63.0794C78.4285 62.3913 77.715 61.897 76.9 61.684C76.085 61.471 75.2209 61.553 74.4605 61.9155C73.6912 62.2821 73.0784 62.9118 72.7328 63.6907C72.3871 64.4696 72.3314 65.3464 72.5756 66.1628L74.7875 73.5564Z" fill="#5E50A1"/>
<path d="M71.0433 56.9083C75.3808 56.9083 78.8971 53.392 78.8971 49.0545C78.8971 44.7169 75.3808 41.2007 71.0433 41.2007C66.7057 41.2007 63.1895 44.7169 63.1895 49.0545C63.1895 53.392 66.7057 56.9083 71.0433 56.9083Z" fill="#F5C4CB"/>
<path d="M71.7625 57.0899C70.5837 57.0848 69.6744 55.8437 69.7272 54.6661C69.78 53.4885 70.5709 52.4524 71.5238 51.7585C72.4768 51.0646 73.5943 50.6419 74.6569 50.1317C75.7196 49.6215 76.773 48.9852 77.4291 48.0058C77.8254 47.3649 78.062 46.6381 78.119 45.8866C78.1759 45.1351 78.0515 44.381 77.7563 43.6876C77.1457 42.3008 76.0974 41.1524 74.7718 40.4182C72.8028 39.2656 70.4718 38.8971 68.2432 39.386C66.0147 39.8749 64.052 41.1854 62.7463 43.0564L61.4007 46.7203C60.0296 48.369 59.8121 50.8176 60.655 52.7894C61.4978 54.7611 63.2925 56.2447 65.3175 56.95C67.3722 57.6103 69.5716 57.6762 71.6621 57.1402" fill="#2F2E41"/>
<path d="M63.2766 45.3308C62.7385 44.5012 62.0046 43.8166 61.1396 43.3376C60.2746 42.8585 59.305 42.5997 58.3163 42.5838C57.3276 42.5679 56.3502 42.7955 55.4702 43.2466C54.5902 43.6976 53.8348 44.3582 53.2704 45.1701C52.3256 46.5293 51.9825 48.2047 51.3329 49.7271C50.1563 52.4536 48.0165 54.651 45.3223 55.8995C47.6813 56.3144 50.0315 55.1143 51.9175 53.6378C53.8035 52.1612 55.4621 50.359 57.5743 49.2295C59.2359 48.3442 61.1027 47.9155 62.984 47.987" fill="#2F2E41"/>
<path d="M129.384 163H7.55219C7.46738 163 7.38605 162.966 7.32608 162.906C7.26611 162.846 7.23242 162.765 7.23242 162.68C7.23242 162.595 7.26611 162.514 7.32608 162.454C7.38605 162.394 7.46738 162.36 7.55219 162.36H129.384C129.468 162.36 129.55 162.394 129.61 162.454C129.67 162.514 129.703 162.595 129.703 162.68C129.703 162.765 129.67 162.846 129.61 162.906C129.55 162.966 129.468 163 129.384 163Z" fill="#3F3D56"/>
</svg>
