<svg width="133" height="109" viewBox="0 0 133 109" fill="none" xmlns="http://www.w3.org/2000/svg">
<g clip-path="url(#clip0)">
<path d="M114.915 75.7753L111.567 65.6721C111.567 65.6721 115.25 69.3546 115.25 72.3761L114.589 65.3888C114.589 65.3888 116.477 67.9382 116.288 71.8095C116.1 75.6808 114.915 75.7753 114.915 75.7753Z" fill="#E6E6E6"/>
<path d="M43.0203 66.5758L39.7529 56.7156C39.7529 56.7156 43.3469 60.3095 43.3469 63.2584L42.7018 56.4391C42.7018 56.4391 44.5448 58.9272 44.3605 62.7054C44.1762 66.4837 43.0203 66.5758 43.0203 66.5758Z" fill="#E6E6E6"/>
<path d="M94.018 71.1259C94.0236 77.6122 81.1589 75.617 65.4095 75.6306C49.6601 75.6442 36.99 77.6614 36.9844 71.1752C36.9788 64.6889 49.8388 63.2671 65.5882 63.2535C81.3376 63.2399 94.0124 64.6397 94.018 71.1259Z" fill="white"/>
<path d="M125.218 75.6269H8V75.9236H125.218V75.6269Z" fill="#3F3D56"/>
<path d="M82.9803 62.3662H80.9213L79.9414 54.4243H82.9803V62.3662Z" fill="#F5C4CB"/>
<path d="M79.2217 61.778H83.4214V64.2782H76.9502V64.0495C76.9502 63.447 77.1895 62.8693 77.6155 62.4433C78.0415 62.0173 78.6193 61.7779 79.2217 61.778Z" fill="#2F2E41"/>
<path d="M98.1151 74.088H96.0561L95.0762 66.1461H98.1151V74.088Z" fill="#F5C4CB"/>
<path d="M94.3565 73.4997H98.5562V76H92.085V75.7713C92.085 75.1688 92.3243 74.5911 92.7503 74.1651C93.1763 73.7391 93.754 73.4997 94.3565 73.4997Z" fill="#2F2E41"/>
<path d="M107.612 50.4941C107.755 50.3215 107.858 50.1197 107.913 49.903C107.969 49.6864 107.977 49.4601 107.936 49.2401C107.895 49.0201 107.807 48.8118 107.676 48.6298C107.546 48.4478 107.378 48.2965 107.183 48.1867L102.4 28.7058L99.3428 30.0214L105.031 48.8577C104.868 49.1975 104.836 49.5852 104.939 49.9473C105.043 50.3094 105.277 50.6208 105.595 50.8226C105.913 51.0243 106.294 51.1022 106.666 51.0417C107.038 50.9812 107.375 50.7863 107.612 50.4941Z" fill="#F5C4CB"/>
<path d="M103.882 11.1229C103.712 10.9445 103.504 10.8056 103.274 10.7162C103.044 10.6267 102.797 10.5888 102.55 10.6051C102.304 10.6214 102.064 10.6915 101.848 10.8105C101.632 10.9295 101.444 11.0945 101.298 11.2939L93.8965 12.1437L95.0225 14.9986L101.754 13.7388C102.105 13.9613 102.526 14.0473 102.936 13.9805C103.346 13.9136 103.718 13.6986 103.98 13.3762C104.242 13.0537 104.377 12.6463 104.359 12.231C104.341 11.8157 104.172 11.4214 103.882 11.1229Z" fill="#F5C4CB"/>
<path d="M91.6846 48.4739L94.9145 72.7149L98.9345 71.8872C98.9345 71.8872 98.3433 54.233 100.353 52.1048C102.363 49.9765 97.768 46.2482 97.768 46.2482L91.6846 48.4739Z" fill="#493E7E"/>
<path d="M93.0204 41.7968L91.5366 44.0225C91.5366 44.0225 80.1116 39.2745 80.1116 46.8416C80.1116 54.4088 79.4578 59.5441 79.2213 59.8988C78.9849 60.2535 81.957 61.1739 83.3759 60.9375C83.3759 60.9375 85.1263 48.7381 85.008 48.0287C85.008 48.0287 96.2155 53.5236 98.3438 53.0506C100.472 52.5777 100.975 50.9034 101.33 49.9576C101.684 49.0117 101.181 41.5001 101.181 41.5001L94.0872 39.3352L93.0204 41.7968Z" fill="#493E7E"/>
<path d="M93.2203 28.434L92.7973 27.9264C92.7973 27.9264 88.0606 17.2688 89.9215 14.3929C91.7823 11.517 99.9025 11.0941 100.156 11.2633C100.41 11.4324 99.5501 13.6288 100.142 14.6438C100.142 14.6438 93.8519 16.0076 93.429 16.1768C93.006 16.346 96.6882 22.5976 96.6882 22.5976L96.2653 26.4039L93.2203 28.434Z" fill="#5E50A1"/>
<path d="M101.509 23.1897C101.509 23.1897 97.1105 23.6972 96.9413 23.6972C96.7722 23.6972 96.6876 22.5976 96.6876 22.5976L92.7967 27.9264C92.7967 27.9264 90.8798 43.386 91.3873 43.1323C91.8948 42.8785 101.255 44.3358 101.34 43.6592C101.424 42.9825 101.255 39.5991 101.509 39.4299C101.763 39.2608 105.907 28.7723 105.907 28.7723C105.907 28.7723 105.484 26.5731 104.046 25.8118C102.608 25.0506 101.509 23.1897 101.509 23.1897Z" fill="#5E50A1"/>
<path d="M104.554 27.3343L105.908 28.7722C105.908 28.7722 107.919 45.2955 106.819 45.803C105.719 46.3105 103.555 46.2481 103.555 46.2481L101.425 38.4149L104.554 27.3343Z" fill="#5E50A1"/>
<path d="M97.2829 22.1433C99.4331 22.1433 101.176 20.4002 101.176 18.25C101.176 16.0999 99.4331 14.3568 97.2829 14.3568C95.1327 14.3568 93.3896 16.0999 93.3896 18.25C93.3896 20.4002 95.1327 22.1433 97.2829 22.1433Z" fill="#F5C4CB"/>
<path d="M96.3698 18.8575C96.3172 18.0497 95.2981 18.022 94.4886 18.0144C93.6791 18.0067 92.7113 18.0356 92.2532 17.3681C91.9505 16.927 92.0083 16.3146 92.2584 15.8417C92.5085 15.3687 92.9198 15.005 93.3245 14.655C94.3693 13.7516 95.4461 12.8553 96.7004 12.277C97.9548 11.6988 99.4247 11.4651 100.726 11.9293C102.324 12.4995 104.484 15.4349 104.67 17.1213C104.857 18.8077 104.183 20.5269 103.047 21.7871C101.911 23.0474 99.3105 22.5389 97.674 22.9872C98.6689 21.5792 98.0131 19.0207 96.4194 18.3632L96.3698 18.8575Z" fill="#2F2E41"/>
<path d="M61.6714 69.217C66.8331 69.217 71.0175 65.0326 71.0175 59.8709C71.0175 54.7091 66.8331 50.5247 61.6714 50.5247C56.5096 50.5247 52.3252 54.7091 52.3252 59.8709C52.3252 65.0326 56.5096 69.217 61.6714 69.217Z" fill="#FBB017"/>
<path d="M55.4298 49.8606C54.1345 49.8607 52.8669 49.4853 51.7805 48.7799C50.6941 48.0745 49.8355 47.0694 49.3085 45.8861L34.4778 12.4876C33.9866 11.3813 33.7267 10.1862 33.7143 8.97576C33.7019 7.76532 33.9372 6.56514 34.4057 5.44897C34.8742 4.33281 35.566 3.32425 36.4386 2.48529C37.3112 1.64633 38.3462 0.99469 39.4799 0.570429C40.6136 0.146168 41.8221 -0.0417532 43.0312 0.0182187C44.2402 0.0781907 45.4241 0.384788 46.5103 0.919164C47.5965 1.45354 48.5619 2.20441 49.3472 3.12561C50.1325 4.04681 50.7211 5.11888 51.0768 6.27593L61.816 41.2057C62.1234 42.2055 62.1921 43.2635 62.0165 44.2947C61.8409 45.3259 61.4259 46.3015 60.8048 47.1432C60.1838 47.9848 59.374 48.6691 58.4405 49.1411C57.507 49.613 56.4758 49.8595 55.4298 49.8606Z" fill="#FBB017"/>
</g>
<path d="M1.49023 94.0059H4.31348C5.63965 94.0059 6.59896 94.2041 7.19141 94.6006C7.78385 94.9971 8.08008 95.6237 8.08008 96.4805C8.08008 97.0729 7.91374 97.5628 7.58105 97.9502C7.25293 98.333 6.77214 98.5814 6.13867 98.6953V98.7637C7.65625 99.0234 8.41504 99.821 8.41504 101.156C8.41504 102.049 8.11198 102.747 7.50586 103.248C6.9043 103.749 6.0612 104 4.97656 104H1.49023V94.0059ZM2.65234 98.2852H4.56641C5.38672 98.2852 5.97689 98.1576 6.33691 97.9023C6.69694 97.6426 6.87695 97.2074 6.87695 96.5967C6.87695 96.0361 6.67643 95.6328 6.27539 95.3867C5.87435 95.1361 5.23633 95.0107 4.36133 95.0107H2.65234V98.2852ZM2.65234 99.2695V103.009H4.7373C5.54395 103.009 6.15007 102.854 6.55566 102.544C6.96582 102.229 7.1709 101.74 7.1709 101.074C7.1709 100.454 6.96126 99.9987 6.54199 99.707C6.12728 99.4154 5.49382 99.2695 4.6416 99.2695H2.65234ZM13.5625 104.137C12.4551 104.137 11.5801 103.799 10.9375 103.125C10.2995 102.451 9.98047 101.514 9.98047 100.315C9.98047 99.1077 10.2767 98.1484 10.8691 97.4375C11.4661 96.7266 12.266 96.3711 13.2686 96.3711C14.2074 96.3711 14.9502 96.681 15.4971 97.3008C16.0439 97.916 16.3174 98.7295 16.3174 99.7412V100.459H11.1562C11.179 101.339 11.4001 102.006 11.8193 102.462C12.2432 102.918 12.8379 103.146 13.6035 103.146C14.4102 103.146 15.2077 102.977 15.9961 102.64V103.651C15.5951 103.825 15.2145 103.948 14.8545 104.021C14.499 104.098 14.0684 104.137 13.5625 104.137ZM13.2549 97.3213C12.6533 97.3213 12.1725 97.5173 11.8125 97.9092C11.457 98.3011 11.2474 98.8434 11.1836 99.5361H15.1006C15.1006 98.8206 14.9411 98.2738 14.6221 97.8955C14.3031 97.5127 13.8473 97.3213 13.2549 97.3213ZM19.3936 104H18.2588V93.3633H19.3936V104ZM22.8662 96.5078V101.368C22.8662 101.979 23.0052 102.435 23.2832 102.735C23.5612 103.036 23.9964 103.187 24.5889 103.187C25.3727 103.187 25.9447 102.972 26.3047 102.544C26.6693 102.116 26.8516 101.416 26.8516 100.445V96.5078H27.9863V104H27.0498L26.8857 102.995H26.8242C26.5918 103.364 26.2682 103.647 25.8535 103.843C25.4434 104.039 24.974 104.137 24.4453 104.137C23.5339 104.137 22.8503 103.92 22.3945 103.487C21.9434 103.054 21.7178 102.362 21.7178 101.409V96.5078H22.8662ZM39.9492 104V99.126C39.9492 98.529 39.8216 98.0824 39.5664 97.7861C39.3112 97.4854 38.9147 97.335 38.377 97.335C37.6706 97.335 37.1488 97.5378 36.8115 97.9434C36.4743 98.349 36.3057 98.9733 36.3057 99.8164V104H35.1709V99.126C35.1709 98.529 35.0433 98.0824 34.7881 97.7861C34.5329 97.4854 34.1341 97.335 33.5918 97.335C32.8809 97.335 32.359 97.5492 32.0264 97.9775C31.6982 98.4014 31.5342 99.0986 31.5342 100.069V104H30.3994V96.5078H31.3223L31.5068 97.5332H31.5615C31.7757 97.1686 32.0765 96.8838 32.4639 96.6787C32.8558 96.4736 33.2933 96.3711 33.7764 96.3711C34.9476 96.3711 35.7132 96.7949 36.0732 97.6426H36.1279C36.3512 97.2507 36.6748 96.9408 37.0986 96.7129C37.5225 96.485 38.0055 96.3711 38.5479 96.3711C39.3955 96.3711 40.029 96.5898 40.4482 97.0273C40.8721 97.4603 41.084 98.1553 41.084 99.1123V104H39.9492ZM51.6729 104L51.4473 102.934H51.3926C51.0189 103.403 50.6452 103.722 50.2715 103.891C49.9023 104.055 49.4398 104.137 48.8838 104.137C48.141 104.137 47.5576 103.945 47.1338 103.562C46.7145 103.18 46.5049 102.635 46.5049 101.929C46.5049 100.416 47.7148 99.6227 50.1348 99.5498L51.4062 99.5088V99.0439C51.4062 98.4561 51.2786 98.0231 51.0234 97.7451C50.7728 97.4626 50.3695 97.3213 49.8135 97.3213C49.1891 97.3213 48.4827 97.5127 47.6943 97.8955L47.3457 97.0273C47.7148 96.8268 48.1182 96.6696 48.5557 96.5557C48.9977 96.4417 49.4398 96.3848 49.8818 96.3848C50.7751 96.3848 51.4359 96.583 51.8643 96.9795C52.2972 97.376 52.5137 98.0117 52.5137 98.8867V104H51.6729ZM49.1094 103.2C49.8158 103.2 50.3695 103.007 50.7705 102.619C51.1761 102.232 51.3789 101.689 51.3789 100.992V100.315L50.2441 100.363C49.3418 100.395 48.6901 100.536 48.2891 100.787C47.8926 101.033 47.6943 101.418 47.6943 101.942C47.6943 102.353 47.8174 102.665 48.0635 102.879C48.3141 103.093 48.6628 103.2 49.1094 103.2ZM59.958 102.995H59.8965C59.3724 103.756 58.5885 104.137 57.5449 104.137C56.5651 104.137 55.8018 103.802 55.2549 103.132C54.7126 102.462 54.4414 101.509 54.4414 100.274C54.4414 99.0394 54.7148 98.0801 55.2617 97.3965C55.8086 96.7129 56.5697 96.3711 57.5449 96.3711C58.5612 96.3711 59.3405 96.7402 59.8828 97.4785H59.9717L59.9238 96.9385L59.8965 96.4121V93.3633H61.0312V104H60.1084L59.958 102.995ZM57.6885 103.187C58.4632 103.187 59.0238 102.977 59.3701 102.558C59.721 102.134 59.8965 101.452 59.8965 100.514V100.274C59.8965 99.2126 59.7188 98.4561 59.3633 98.0049C59.0124 97.5492 58.4495 97.3213 57.6748 97.3213C57.0094 97.3213 56.499 97.5811 56.1436 98.1006C55.7926 98.6156 55.6172 99.3447 55.6172 100.288C55.6172 101.245 55.7926 101.967 56.1436 102.455C56.4945 102.943 57.0094 103.187 57.6885 103.187ZM68.0518 104L67.8262 102.934H67.7715C67.3978 103.403 67.0241 103.722 66.6504 103.891C66.2812 104.055 65.8187 104.137 65.2627 104.137C64.5199 104.137 63.9365 103.945 63.5127 103.562C63.0934 103.18 62.8838 102.635 62.8838 101.929C62.8838 100.416 64.0938 99.6227 66.5137 99.5498L67.7852 99.5088V99.0439C67.7852 98.4561 67.6576 98.0231 67.4023 97.7451C67.1517 97.4626 66.7484 97.3213 66.1924 97.3213C65.568 97.3213 64.8617 97.5127 64.0732 97.8955L63.7246 97.0273C64.0938 96.8268 64.4971 96.6696 64.9346 96.5557C65.3766 96.4417 65.8187 96.3848 66.2607 96.3848C67.154 96.3848 67.8148 96.583 68.2432 96.9795C68.6761 97.376 68.8926 98.0117 68.8926 98.8867V104H68.0518ZM65.4883 103.2C66.1947 103.2 66.7484 103.007 67.1494 102.619C67.555 102.232 67.7578 101.689 67.7578 100.992V100.315L66.623 100.363C65.7207 100.395 65.069 100.536 64.668 100.787C64.2715 101.033 64.0732 101.418 64.0732 101.942C64.0732 102.353 64.1963 102.665 64.4424 102.879C64.693 103.093 65.0417 103.2 65.4883 103.2ZM80.001 104V99.1533C80.001 98.5426 79.862 98.0869 79.584 97.7861C79.306 97.4854 78.8708 97.335 78.2783 97.335C77.4945 97.335 76.9202 97.5469 76.5557 97.9707C76.1911 98.3945 76.0088 99.0941 76.0088 100.069V104H74.874V96.5078H75.7969L75.9814 97.5332H76.0361C76.2686 97.1641 76.5944 96.8792 77.0137 96.6787C77.4329 96.4736 77.9001 96.3711 78.415 96.3711C79.3174 96.3711 79.9964 96.5898 80.4521 97.0273C80.9079 97.4603 81.1357 98.1553 81.1357 99.1123V104H80.001ZM89.9404 100.247C89.9404 101.468 89.6328 102.423 89.0176 103.111C88.4023 103.795 87.5524 104.137 86.4678 104.137C85.7979 104.137 85.2031 103.979 84.6836 103.665C84.1641 103.351 83.763 102.899 83.4805 102.312C83.1979 101.724 83.0566 101.035 83.0566 100.247C83.0566 99.0257 83.362 98.0755 83.9727 97.3965C84.5833 96.7129 85.431 96.3711 86.5156 96.3711C87.5638 96.3711 88.3955 96.7197 89.0107 97.417C89.6305 98.1143 89.9404 99.0576 89.9404 100.247ZM84.2324 100.247C84.2324 101.204 84.4238 101.933 84.8066 102.435C85.1895 102.936 85.7523 103.187 86.4951 103.187C87.238 103.187 87.8008 102.938 88.1836 102.441C88.571 101.94 88.7646 101.209 88.7646 100.247C88.7646 99.2946 88.571 98.5723 88.1836 98.0801C87.8008 97.5833 87.2334 97.335 86.4814 97.335C85.7386 97.335 85.1781 97.5788 84.7998 98.0664C84.4215 98.554 84.2324 99.2809 84.2324 100.247ZM94.3564 103.2C94.557 103.2 94.7507 103.187 94.9375 103.159C95.1243 103.127 95.2725 103.095 95.3818 103.063V103.932C95.2588 103.991 95.0765 104.039 94.835 104.075C94.598 104.116 94.3838 104.137 94.1924 104.137C92.7432 104.137 92.0186 103.373 92.0186 101.847V97.3896H90.9453V96.8428L92.0186 96.3711L92.4971 94.7715H93.1533V96.5078H95.3271V97.3896H93.1533V101.799C93.1533 102.25 93.2604 102.596 93.4746 102.838C93.6888 103.079 93.9827 103.2 94.3564 103.2ZM98.0205 104H96.8857V96.5078H98.0205V104ZM96.79 94.4775C96.79 94.2178 96.8538 94.0286 96.9814 93.9102C97.109 93.7871 97.2686 93.7256 97.46 93.7256C97.6423 93.7256 97.7995 93.7871 97.9316 93.9102C98.0638 94.0332 98.1299 94.2223 98.1299 94.4775C98.1299 94.7327 98.0638 94.9242 97.9316 95.0518C97.7995 95.1748 97.6423 95.2363 97.46 95.2363C97.2686 95.2363 97.109 95.1748 96.9814 95.0518C96.8538 94.9242 96.79 94.7327 96.79 94.4775ZM103.804 97.3896H101.896V104H100.762V97.3896H99.4219V96.877L100.762 96.4668V96.0498C100.762 94.2087 101.566 93.2881 103.175 93.2881C103.571 93.2881 104.036 93.3678 104.569 93.5273L104.275 94.4365C103.838 94.2952 103.464 94.2246 103.154 94.2246C102.726 94.2246 102.409 94.3682 102.204 94.6553C101.999 94.9378 101.896 95.3936 101.896 96.0225V96.5078H103.804V97.3896ZM106.306 104H105.171V96.5078H106.306V104ZM105.075 94.4775C105.075 94.2178 105.139 94.0286 105.267 93.9102C105.394 93.7871 105.554 93.7256 105.745 93.7256C105.927 93.7256 106.085 93.7871 106.217 93.9102C106.349 94.0332 106.415 94.2223 106.415 94.4775C106.415 94.7327 106.349 94.9242 106.217 95.0518C106.085 95.1748 105.927 95.2363 105.745 95.2363C105.554 95.2363 105.394 95.1748 105.267 95.0518C105.139 94.9242 105.075 94.7327 105.075 94.4775ZM109.833 100.165C110.029 99.887 110.327 99.5225 110.729 99.0713L113.148 96.5078H114.495L111.46 99.7002L114.707 104H113.333L110.688 100.459L109.833 101.197V104H108.712V93.3633H109.833V99.0029C109.833 99.2536 109.815 99.641 109.778 100.165H109.833ZM120.675 104L120.449 102.934H120.395C120.021 103.403 119.647 103.722 119.273 103.891C118.904 104.055 118.442 104.137 117.886 104.137C117.143 104.137 116.56 103.945 116.136 103.562C115.716 103.18 115.507 102.635 115.507 101.929C115.507 100.416 116.717 99.6227 119.137 99.5498L120.408 99.5088V99.0439C120.408 98.4561 120.281 98.0231 120.025 97.7451C119.775 97.4626 119.371 97.3213 118.815 97.3213C118.191 97.3213 117.485 97.5127 116.696 97.8955L116.348 97.0273C116.717 96.8268 117.12 96.6696 117.558 96.5557C118 96.4417 118.442 96.3848 118.884 96.3848C119.777 96.3848 120.438 96.583 120.866 96.9795C121.299 97.376 121.516 98.0117 121.516 98.8867V104H120.675ZM118.111 103.2C118.818 103.2 119.371 103.007 119.772 102.619C120.178 102.232 120.381 101.689 120.381 100.992V100.315L119.246 100.363C118.344 100.395 117.692 100.536 117.291 100.787C116.895 101.033 116.696 101.418 116.696 101.942C116.696 102.353 116.819 102.665 117.065 102.879C117.316 103.093 117.665 103.2 118.111 103.2ZM128.693 101.956C128.693 102.653 128.434 103.191 127.914 103.569C127.395 103.948 126.665 104.137 125.727 104.137C124.733 104.137 123.958 103.979 123.402 103.665V102.612C123.762 102.795 124.147 102.938 124.558 103.043C124.972 103.148 125.371 103.2 125.754 103.2C126.346 103.2 126.802 103.107 127.121 102.92C127.44 102.729 127.6 102.439 127.6 102.052C127.6 101.76 127.472 101.512 127.217 101.307C126.966 101.097 126.474 100.851 125.74 100.568C125.043 100.309 124.546 100.083 124.25 99.8916C123.958 99.6956 123.74 99.4746 123.594 99.2285C123.452 98.9824 123.382 98.6885 123.382 98.3467C123.382 97.736 123.63 97.2552 124.127 96.9043C124.624 96.5488 125.305 96.3711 126.171 96.3711C126.978 96.3711 127.766 96.5352 128.536 96.8633L128.133 97.7861C127.381 97.4762 126.7 97.3213 126.089 97.3213C125.551 97.3213 125.146 97.4056 124.872 97.5742C124.599 97.7428 124.462 97.9753 124.462 98.2715C124.462 98.472 124.512 98.6429 124.612 98.7842C124.717 98.9255 124.883 99.0599 125.111 99.1875C125.339 99.3151 125.777 99.4997 126.424 99.7412C127.312 100.065 127.912 100.391 128.222 100.719C128.536 101.047 128.693 101.459 128.693 101.956ZM131.681 104H130.546V96.5078H131.681V104ZM130.45 94.4775C130.45 94.2178 130.514 94.0286 130.642 93.9102C130.769 93.7871 130.929 93.7256 131.12 93.7256C131.302 93.7256 131.46 93.7871 131.592 93.9102C131.724 94.0332 131.79 94.2223 131.79 94.4775C131.79 94.7327 131.724 94.9242 131.592 95.0518C131.46 95.1748 131.302 95.2363 131.12 95.2363C130.929 95.2363 130.769 95.1748 130.642 95.0518C130.514 94.9242 130.45 94.7327 130.45 94.4775Z" fill="#1F2A36"/>
<defs>
<clipPath id="clip0">
<rect width="117.218" height="76" fill="white" transform="translate(8)"/>
</clipPath>
</defs>
</svg>
