<svg width="126" height="126" viewBox="0 0 126 126" fill="none" xmlns="http://www.w3.org/2000/svg">
<circle cx="63" cy="63" r="63" fill="#FF5F5F"/>
<path fill-rule="evenodd" clip-rule="evenodd" d="M86.4735 40.0943C85.0144 38.6352 82.6488 38.6352 81.1898 40.0943L63.2839 58.0002L45.3781 40.0943C43.919 38.6353 41.5534 38.6353 40.0944 40.0943C38.6353 41.5534 38.6353 43.919 40.0944 45.378L58.0002 63.2839L40.0943 81.1898C38.6352 82.6488 38.6352 85.0144 40.0943 86.4735C41.5533 87.9326 43.9189 87.9326 45.378 86.4735L63.2839 68.5676L81.1899 86.4735C82.6489 87.9326 85.0145 87.9326 86.4736 86.4735C87.9326 85.0145 87.9326 82.6489 86.4736 81.1898L68.5676 63.2839L86.4735 45.378C87.9326 43.9189 87.9326 41.5533 86.4735 40.0943Z" fill="white"/>
</svg>
