<svg width="224" height="172" viewBox="0 0 224 172" fill="none" xmlns="http://www.w3.org/2000/svg">
<path d="M44.3125 123.094C44.3125 126.672 43.1406 129.414 40.7969 131.32C38.4531 133.227 35.1172 134.18 30.7891 134.18H27.2266V147H21.625V112.734H31.4922C35.7734 112.734 38.9766 113.609 41.1016 115.359C43.2422 117.109 44.3125 119.688 44.3125 123.094ZM27.2266 129.469H30.2031C33.0781 129.469 35.1875 128.969 36.5312 127.969C37.875 126.969 38.5469 125.406 38.5469 123.281C38.5469 121.312 37.9453 119.844 36.7422 118.875C35.5391 117.906 33.6641 117.422 31.1172 117.422H27.2266V129.469ZM61.8906 147.469C57.8594 147.469 54.7031 146.297 52.4219 143.953C50.1562 141.594 49.0234 138.352 49.0234 134.227C49.0234 129.992 50.0781 126.664 52.1875 124.242C54.2969 121.82 57.1953 120.609 60.8828 120.609C64.3047 120.609 67.0078 121.648 68.9922 123.727C70.9766 125.805 71.9688 128.664 71.9688 132.305V135.281H54.6953C54.7734 137.797 55.4531 139.734 56.7344 141.094C58.0156 142.438 59.8203 143.109 62.1484 143.109C63.6797 143.109 65.1016 142.969 66.4141 142.688C67.7422 142.391 69.1641 141.906 70.6797 141.234V145.711C69.3359 146.352 67.9766 146.805 66.6016 147.07C65.2266 147.336 63.6562 147.469 61.8906 147.469ZM60.8828 124.781C59.1328 124.781 57.7266 125.336 56.6641 126.445C55.6172 127.555 54.9922 129.172 54.7891 131.297H66.5547C66.5234 129.156 66.0078 127.539 65.0078 126.445C64.0078 125.336 62.6328 124.781 60.8828 124.781ZM99.4844 147L96.1328 134.906C95.7266 133.625 94.9922 130.648 93.9297 125.977H93.7188C92.8125 130.195 92.0938 133.188 91.5625 134.953L88.1172 147H82.0234L74.7578 121.078H80.3828L83.6875 133.852C84.4375 137.008 84.9688 139.711 85.2812 141.961H85.4219C85.5781 140.82 85.8125 139.516 86.125 138.047C86.4531 136.562 86.7344 135.453 86.9688 134.719L90.9062 121.078H96.9531L100.773 134.719C101.008 135.484 101.297 136.656 101.641 138.234C102 139.812 102.211 141.039 102.273 141.914H102.461C102.695 139.992 103.242 137.305 104.102 133.852L107.453 121.078H112.984L105.672 147H99.4844ZM140.453 133.992C140.453 138.227 139.367 141.531 137.195 143.906C135.023 146.281 132 147.469 128.125 147.469C125.703 147.469 123.562 146.922 121.703 145.828C119.844 144.734 118.414 143.164 117.414 141.117C116.414 139.07 115.914 136.695 115.914 133.992C115.914 129.789 116.992 126.508 119.148 124.148C121.305 121.789 124.344 120.609 128.266 120.609C132.016 120.609 134.984 121.82 137.172 124.242C139.359 126.648 140.453 129.898 140.453 133.992ZM121.586 133.992C121.586 139.977 123.797 142.969 128.219 142.969C132.594 142.969 134.781 139.977 134.781 133.992C134.781 128.07 132.578 125.109 128.172 125.109C125.859 125.109 124.18 125.875 123.133 127.406C122.102 128.938 121.586 131.133 121.586 133.992ZM159.953 120.609C161.062 120.609 161.977 120.688 162.695 120.844L162.156 125.977C161.375 125.789 160.562 125.695 159.719 125.695C157.516 125.695 155.727 126.414 154.352 127.852C152.992 129.289 152.312 131.156 152.312 133.453V147H146.805V121.078H151.117L151.844 125.648H152.125C152.984 124.102 154.102 122.875 155.477 121.969C156.867 121.062 158.359 120.609 159.953 120.609ZM173.031 147H167.523V110.531H173.031V147ZM189.672 147.469C186.438 147.469 183.914 146.297 182.102 143.953C180.289 141.609 179.383 138.32 179.383 134.086C179.383 129.836 180.297 126.531 182.125 124.172C183.969 121.797 186.516 120.609 189.766 120.609C193.172 120.609 195.766 121.867 197.547 124.383H197.828C197.562 122.523 197.43 121.055 197.43 119.977V110.531H202.961V147H198.648L197.688 143.602H197.43C195.664 146.18 193.078 147.469 189.672 147.469ZM191.148 143.016C193.414 143.016 195.062 142.383 196.094 141.117C197.125 139.836 197.656 137.766 197.688 134.906V134.133C197.688 130.867 197.156 128.547 196.094 127.172C195.031 125.797 193.367 125.109 191.102 125.109C189.164 125.109 187.672 125.898 186.625 127.477C185.578 129.039 185.055 131.273 185.055 134.18C185.055 137.055 185.562 139.25 186.578 140.766C187.594 142.266 189.117 143.016 191.148 143.016Z" fill="white"/>
<path d="M112 8L72 28L112 48L152 28L112 8Z" stroke="white" stroke-width="2" stroke-linecap="round" stroke-linejoin="round"/>
<path d="M72 68L112 88L152 68" stroke="white" stroke-width="2" stroke-linecap="round" stroke-linejoin="round"/>
<path d="M72 48L112 68L152 48" stroke="white" stroke-width="2" stroke-linecap="round" stroke-linejoin="round"/>
</svg>
