<svg width="20" height="20" viewBox="0 0 20 20" fill="none" xmlns="http://www.w3.org/2000/svg">
<path d="M18.6719 7.8125H15.3125V6.58203C15.3125 6.01125 14.8481 5.54688 14.2773 5.54688H13.7532V3.82812H13.7523C13.7523 3.72648 13.7135 3.6266 13.6388 3.55191L10.2013 0.114414C10.1307 0.0437109 10.033 0 9.92512 0H0.390625C0.174883 0 0 0.174922 0 0.390625V17.5C0 17.7157 0.174883 17.8906 0.390625 17.8906H3.90625V18.6719C3.90625 19.4042 4.50203 20 5.23438 20H10.1953C10.4111 20 10.5859 19.8251 10.5859 19.6094C10.5859 19.3937 10.4111 19.2188 10.1953 19.2188H5.23438C4.93281 19.2188 4.6875 18.9734 4.6875 18.6719V12.9423L10.3125 14.5782V14.9609C10.3125 15.8656 11.0485 16.6016 11.9531 16.6016C12.8578 16.6016 13.5938 15.8656 13.5938 14.9609V14.5782L19.2188 12.9423V18.6719C19.2188 18.9734 18.9734 19.2188 18.6719 19.2188H13.7109C13.4952 19.2188 13.3203 19.3937 13.3203 19.6094C13.3203 19.8251 13.4952 20 13.7109 20H18.6719C19.4042 20 20 19.4042 20 18.6719V9.14062C20 8.40828 19.4042 7.8125 18.6719 7.8125ZM14.5312 6.58203V7.8125H9.375V6.58203C9.375 6.44203 9.48891 6.32812 9.62891 6.32812H14.2773C14.4173 6.32812 14.5312 6.44203 14.5312 6.58203ZM10.3157 1.33371L12.4196 3.4375H10.3157V1.33371ZM0.78125 17.1094V0.78125H9.53449V3.82812C9.53449 4.04383 9.70937 4.21875 9.92512 4.21875H12.972V5.54688H9.62891C9.05812 5.54688 8.59375 6.01125 8.59375 6.58203V7.8125H5.23438C4.50203 7.8125 3.90625 8.40828 3.90625 9.14062V17.1094H0.78125ZM11.9531 15.8203C11.4793 15.8203 11.0938 15.4348 11.0938 14.9609V13.7891H12.8125V14.9609C12.8125 15.4348 12.427 15.8203 11.9531 15.8203ZM13.2031 13.0078H10.7031C10.4874 13.0078 10.3125 13.1827 10.3125 13.3984V13.7645L4.6875 12.1287V9.14062C4.6875 8.83906 4.93281 8.59375 5.23438 8.59375H18.6719C18.9734 8.59375 19.2188 8.83906 19.2188 9.14062V12.1287L13.5938 13.7645V13.3984C13.5938 13.1827 13.4189 13.0078 13.2031 13.0078Z" fill="black"/>
<path d="M7.42199 6.01562C7.42199 5.79992 7.24711 5.625 7.03137 5.625H2.28809C2.07234 5.625 1.89746 5.79992 1.89746 6.01562C1.89746 6.23133 2.07234 6.40625 2.28809 6.40625H7.03137C7.24711 6.40625 7.42199 6.23133 7.42199 6.01562Z" fill="black"/>
<path d="M2.28809 4.21875H7.03137C7.24711 4.21875 7.42199 4.04383 7.42199 3.82812C7.42199 3.61242 7.24711 3.4375 7.03137 3.4375H2.28809C2.07234 3.4375 1.89746 3.61242 1.89746 3.82812C1.89746 4.04383 2.07234 4.21875 2.28809 4.21875Z" fill="black"/>
<path d="M11.9531 19.2188C11.8504 19.2188 11.7496 19.2605 11.677 19.3332C11.6043 19.4059 11.5625 19.5066 11.5625 19.6094C11.5625 19.7121 11.6043 19.8129 11.677 19.8855C11.7496 19.9582 11.8504 20 11.9531 20C12.0559 20 12.1566 19.9582 12.2293 19.8855C12.302 19.8129 12.3438 19.7121 12.3438 19.6094C12.3438 19.5066 12.302 19.4059 12.2293 19.3332C12.1566 19.2605 12.0559 19.2188 11.9531 19.2188Z" fill="black"/>
</svg>
